<svg xmlns="http://www.w3.org/2000/svg" xmlns:xlink="http://www.w3.org/1999/xlink" width="50" zoomAndPan="magnify" viewBox="0 0 37.5 37.499999" height="50" preserveAspectRatio="xMidYMid meet" version="1.0"><defs><clipPath id="a9c253d607"><path d="M 0.367188 0.527344 L 36.621094 0.527344 L 36.621094 36.792969 L 0.367188 36.792969 Z M 0.367188 0.527344 " clip-rule="nonzero"/></clipPath></defs><g clip-path="url(#a9c253d607)"><path fill="#000000" d="M 14.273438 13.726562 L 14.273438 10.28125 C 14.273438 9.988281 14.378906 9.773438 14.632812 9.628906 L 21.496094 5.636719 C 22.429688 5.09375 23.542969 4.839844 24.691406 4.839844 C 29.003906 4.839844 31.734375 8.214844 31.734375 11.804688 C 31.734375 12.058594 31.734375 12.347656 31.699219 12.636719 L 24.585938 8.429688 C 24.152344 8.175781 23.722656 8.175781 23.289062 8.429688 Z M 30.296875 27.144531 L 30.296875 18.910156 C 30.296875 18.402344 30.082031 18.042969 29.652344 17.789062 L 20.632812 12.492188 L 23.578125 10.789062 C 23.828125 10.644531 24.046875 10.644531 24.296875 10.789062 L 31.160156 14.777344 C 33.136719 15.9375 34.464844 18.402344 34.464844 20.796875 C 34.464844 23.554688 32.847656 26.09375 30.296875 27.144531 Z M 12.152344 19.890625 L 9.207031 18.152344 C 8.953125 18.007812 8.847656 17.789062 8.847656 17.496094 L 8.847656 9.519531 C 8.847656 5.636719 11.792969 2.699219 15.78125 2.699219 C 17.289062 2.699219 18.691406 3.207031 19.878906 4.113281 L 12.800781 8.25 C 12.367188 8.503906 12.152344 8.867188 12.152344 9.375 Z M 18.492188 23.589844 L 14.273438 21.195312 L 14.273438 16.121094 L 18.492188 13.726562 L 22.714844 16.121094 L 22.714844 21.195312 Z M 21.207031 34.617188 C 19.699219 34.617188 18.296875 34.109375 17.109375 33.203125 L 24.1875 29.066406 C 24.621094 28.8125 24.835938 28.449219 24.835938 27.941406 L 24.835938 17.425781 L 27.820312 19.164062 C 28.070312 19.3125 28.179688 19.527344 28.179688 19.820312 L 28.179688 27.796875 C 28.179688 31.679688 25.195312 34.617188 21.207031 34.617188 Z M 12.691406 26.527344 L 5.828125 22.539062 C 3.851562 21.378906 2.523438 18.914062 2.523438 16.519531 C 2.523438 13.726562 4.175781 11.222656 6.726562 10.171875 L 6.726562 18.441406 C 6.726562 18.949219 6.941406 19.3125 7.371094 19.566406 L 16.355469 24.824219 L 13.410156 26.527344 C 13.15625 26.671875 12.941406 26.671875 12.691406 26.527344 Z M 12.296875 32.476562 C 8.234375 32.476562 5.253906 29.394531 5.253906 25.585938 C 5.253906 25.296875 5.289062 25.003906 5.324219 24.714844 L 12.402344 28.851562 C 12.835938 29.105469 13.265625 29.105469 13.695312 28.851562 L 22.714844 23.589844 L 22.714844 27.035156 C 22.714844 27.328125 22.609375 27.542969 22.355469 27.6875 L 15.492188 31.679688 C 14.558594 32.222656 13.445312 32.476562 12.296875 32.476562 Z M 21.207031 36.792969 C 25.554688 36.792969 29.183594 33.671875 30.011719 29.539062 C 34.035156 28.488281 36.621094 24.679688 36.621094 20.796875 C 36.621094 18.257812 35.542969 15.792969 33.605469 14.015625 C 33.785156 13.253906 33.890625 12.492188 33.890625 11.730469 C 33.890625 6.546875 29.722656 2.664062 24.90625 2.664062 C 23.9375 2.664062 23.003906 2.808594 22.070312 3.136719 C 20.453125 1.539062 18.222656 0.523438 15.78125 0.523438 C 11.433594 0.523438 7.804688 3.644531 6.976562 7.777344 C 2.953125 8.828125 0.367188 12.636719 0.367188 16.519531 C 0.367188 19.058594 1.445312 21.523438 3.382812 23.300781 C 3.203125 24.0625 3.097656 24.824219 3.097656 25.585938 C 3.097656 30.773438 7.265625 34.652344 12.082031 34.652344 C 13.050781 34.652344 13.984375 34.507812 14.917969 34.179688 C 16.535156 35.777344 18.761719 36.792969 21.207031 36.792969 Z M 21.207031 36.792969 " fill-opacity="1" fill-rule="nonzero"/></g></svg>