<svg xmlns="http://www.w3.org/2000/svg" xmlns:xlink="http://www.w3.org/1999/xlink" width="50" zoomAndPan="magnify" viewBox="0 0 37.5 37.499999" height="50" preserveAspectRatio="xMidYMid meet" version="1.0"><path fill="#0a66c2" d="M 31.449219 31.285156 L 25.980469 31.285156 L 25.980469 22.773438 C 25.980469 20.746094 25.945312 18.132812 23.136719 18.132812 C 20.332031 18.132812 19.851562 20.34375 19.851562 22.625 L 19.851562 31.285156 L 14.386719 31.285156 L 14.386719 13.78125 L 19.636719 13.78125 L 19.636719 16.171875 L 19.707031 16.171875 C 20.777344 14.355469 22.769531 13.269531 24.886719 13.347656 C 30.433594 13.347656 31.453125 16.96875 31.453125 21.683594 L 31.453125 31.285156 Z M 8.210938 11.390625 C 6.457031 11.390625 5.035156 9.980469 5.035156 8.238281 C 5.035156 6.496094 6.457031 5.082031 8.210938 5.082031 C 9.960938 5.082031 11.382812 6.496094 11.382812 8.234375 C 11.382812 9.976562 9.964844 11.390625 8.210938 11.390625 M 10.949219 31.285156 L 5.472656 31.285156 L 5.472656 13.78125 L 10.949219 13.78125 Z M 34.175781 0.0351562 L 2.722656 0.0351562 C 1.238281 0.0195312 0.015625 1.203125 0 2.679688 L 0 34.0625 C 0.015625 35.542969 1.234375 36.722656 2.722656 36.707031 L 34.175781 36.707031 C 35.667969 36.726562 36.890625 35.542969 36.910156 34.0625 L 36.910156 2.675781 C 36.890625 1.199219 35.667969 0.015625 34.175781 0.0351562 " fill-opacity="1" fill-rule="nonzero"/></svg>